<svg xmlns="http://www.w3.org/2000/svg" viewBox="0 0 24 24" id="Bin--Streamline-Ultimate.svg" height="24" width="24"><desc>Bin Streamline Icon: https://streamlinehq.com</desc><g><path d="M19.5 7.5h-15A0.5 0.5 0 0 0 4 8v14a2 2 0 0 0 2 2h12a2 2 0 0 0 2 -2V8a0.5 0.5 0 0 0 -0.5 -0.5Zm-9.25 13a0.75 0.75 0 0 1 -1.5 0v-9a0.75 0.75 0 0 1 1.5 0Zm5 0a0.75 0.75 0 0 1 -1.5 0v-9a0.75 0.75 0 0 1 1.5 0Z" fill="#000000" stroke-width="1"></path><path d="M22 4h-4.75a0.25 0.25 0 0 1 -0.25 -0.25V2.5A2.5 2.5 0 0 0 14.5 0h-5A2.5 2.5 0 0 0 7 2.5v1.25a0.25 0.25 0 0 1 -0.25 0.25H2a1 1 0 0 0 0 2h20a1 1 0 0 0 0 -2ZM9 3.75V2.5a0.5 0.5 0 0 1 0.5 -0.5h5a0.5 0.5 0 0 1 0.5 0.5v1.25a0.25 0.25 0 0 1 -0.25 0.25h-5.5A0.25 0.25 0 0 1 9 3.75Z" fill="#000000" stroke-width="1"></path></g></svg>