<svg viewBox="0 0 24 24" xmlns="http://www.w3.org/2000/svg" id="Single-Neutral-Circle--Streamline-Ultimate.svg" height="24" width="24"><desc>Single Neutral Circle Streamline Icon: https://streamlinehq.com</desc><path d="M0.5 12a11.5 11.5 0 1 0 23 0 11.5 11.5 0 1 0 -23 0Z" fill="none" stroke="#000000" stroke-linecap="round" stroke-linejoin="round" stroke-width="1"></path><path d="M3.959 20.221a25.59 25.59 0 0 1 5.413 -2.352c0.837 -0.309 0.928 -2.229 0.328 -2.889 -0.866 -0.953 -1.6 -2.07 -1.6 -4.766A3.812 3.812 0 0 1 12 6.047a3.812 3.812 0 0 1 3.9 4.167c0 2.7 -0.734 3.813 -1.6 4.766 -0.6 0.66 -0.509 2.58 0.328 2.889a25.59 25.59 0 0 1 5.413 2.352" fill="none" stroke="#000000" stroke-linecap="round" stroke-linejoin="round" stroke-width="1"></path></svg>