<svg viewBox="0 0 24 24" xmlns="http://www.w3.org/2000/svg" id="Like-Ribbon-1--Streamline-Ultimate.svg" height="24" width="24"><desc>Like Ribbon 1 Streamline Icon: https://streamlinehq.com</desc><path d="M15.3 11.568a1.6 1.6 0 0 1 -1.531 0.932h-1.605c-1.664 0 -1.166 -1 -3.666 -1v-3h0.337C10.291 8.5 11.159 6.821 12 5c0.275 -0.6 1.5 -1 1.5 0.28V7.5h2.62a0.661 0.661 0 0 1 0.624 0.666Z" fill="none" stroke="#000000" stroke-linecap="round" stroke-linejoin="round" stroke-width="1"></path><path d="m19.961 14.631 2.878 4.984c0.275 0.476 0.056 0.791 -0.487 0.7l-2.865 -0.484 -0.987 2.728c-0.188 0.517 -0.571 0.553 -0.852 0.079L14.893 18" fill="none" stroke="#000000" stroke-linecap="round" stroke-linejoin="round" stroke-width="1"></path><path d="m4.039 14.631 -2.878 4.984c-0.275 0.476 -0.056 0.791 0.487 0.7l2.865 -0.484L5.849 23.5 9.1 18" fill="none" stroke="#000000" stroke-linecap="round" stroke-linejoin="round" stroke-width="1"></path><path d="M20 8.5a2.781 2.781 0 0 0 -1.755 -2.586 2.784 2.784 0 0 0 -3.658 -3.658 2.783 2.783 0 0 0 -5.173 0 2.784 2.784 0 0 0 -3.661 3.658 2.782 2.782 0 0 0 0 5.172 2.784 2.784 0 0 0 3.658 3.658 2.783 2.783 0 0 0 5.173 0 2.784 2.784 0 0 0 3.658 -3.658A2.781 2.781 0 0 0 20 8.5Z" fill="none" stroke="#000000" stroke-linecap="round" stroke-linejoin="round" stroke-width="1"></path></svg>