<svg xmlns="http://www.w3.org/2000/svg" fill="none" viewBox="0 0 24 24" id="Alert-Bell-Notification-1--Streamline-Ultimate.svg" height="24" width="24"><desc>Alert Bell Notification 1 Streamline Icon: https://streamlinehq.com</desc><path stroke="#000000" d="M17.5 9.24899c-0.1381 0 -0.25 -0.11193 -0.25 -0.25s0.1119 -0.25 0.25 -0.25" stroke-width="1"></path><path stroke="#000000" d="M17.5 9.24899c0.1381 0 0.25 -0.11193 0.25 -0.25s-0.1119 -0.25 -0.25 -0.25" stroke-width="1"></path><path stroke="#000000" stroke-linecap="round" stroke-linejoin="round" d="M17.5 6.75v-3" stroke-width="1"></path><path stroke="#000000" stroke-linecap="round" stroke-linejoin="round" d="M17.5 12.5c3.3137 0 6 -2.68629 6 -6s-2.6863 -6 -6 -6 -6 2.68629 -6 6 2.6863 6 6 6Z" stroke-width="1"></path><path stroke="#000000" stroke-linecap="round" stroke-linejoin="round" d="M9.6 7.72199c-0.89075 -0.24963 -1.82725 -0.28937 -2.73595 -0.11611 -0.9087 0.17325 -1.76487 0.5548 -2.50129 1.11466 -0.73641 0.55987 -1.33302 1.28286 -1.74298 2.11206 -0.40995 0.8293 -0.6221 1.7423 -0.61978 2.6674V19c0 0.3978 -0.15804 0.7793 -0.43934 1.0606C1.27936 20.342 0.897825 20.5 0.5 20.5h15c-0.3978 0 -0.7794 -0.158 -1.0607 -0.4394C14.158 19.7793 14 19.3978 14 19v-5.316" stroke-width="1"></path><path stroke="#000000" stroke-linecap="round" stroke-linejoin="round" d="M9.415 22.5c-0.10328 0.2926 -0.29479 0.5461 -0.54812 0.7253 -0.25334 0.1793 -0.55604 0.2755 -0.86638 0.2755 -0.31034 0 -0.61304 -0.0962 -0.86638 -0.2755 -0.25334 -0.1792 -0.44484 -0.4327 -0.54812 -0.7253" stroke-width="1"></path><path stroke="#000000" stroke-linecap="round" stroke-linejoin="round" d="M8 5.49899v2" stroke-width="1"></path></svg>