<svg xmlns="http://www.w3.org/2000/svg" viewBox="0 0 24 24" id="Customer-Relationship-Management-Expense-Tracking-Bill--Streamline-Ultimate.svg" height="24" width="24"><desc>Customer Relationship Management Expense Tracking Bill Streamline Icon: https://streamlinehq.com</desc><defs></defs><path d="M19.569 0.5H3.628a3 3 0 0 0 -3 3v19.489l2.044 -2.045 2.045 2.045 2.3 -2.3 2.555 2.555" fill="none" stroke="#000000" stroke-linecap="round" stroke-linejoin="round" stroke-width="1"></path><path d="m16.983 13.022 0 -9.936" fill="none" stroke="#000000" stroke-linecap="round" stroke-linejoin="round" stroke-width="1"></path><path d="M7.8 6.242H5.483A1.532 1.532 0 0 0 4.914 9.2l2.356 0.942a1.532 1.532 0 0 1 -0.57 2.951H4.379" fill="none" stroke="#000000" stroke-linecap="round" stroke-linejoin="round" stroke-width="1"></path><path d="m6.092 14.235 0 -1.142" fill="none" stroke="#000000" stroke-linecap="round" stroke-linejoin="round" stroke-width="1"></path><path d="m6.092 6.243 0 -1.143" fill="none" stroke="#000000" stroke-linecap="round" stroke-linejoin="round" stroke-width="1"></path><path d="m10.889 6.687 2.812 0" fill="none" stroke="#000000" stroke-linecap="round" stroke-linejoin="round" stroke-width="1"></path><path d="m10.889 9.48 2.812 0" fill="none" stroke="#000000" stroke-linecap="round" stroke-linejoin="round" stroke-width="1"></path><path d="m10.889 12.439 2.812 0" fill="none" stroke="#000000" stroke-linecap="round" stroke-linejoin="round" stroke-width="1"></path><path d="M23.217 19.21a0.75 0.75 0 0 1 0 0.914c-0.776 1.017 -2.906 3.376 -5.978 3.376s-5.2 -2.36 -5.978 -3.377a0.749 0.749 0 0 1 0 -0.913c0.776 -1.017 2.906 -3.377 5.978 -3.377s5.203 2.361 5.978 3.377Z" fill="none" stroke="#000000" stroke-linecap="round" stroke-linejoin="round" stroke-width="1"></path><path d="M17.239 17.91a1.757 1.757 0 1 1 -1.757 1.757 1.757 1.757 0 0 1 1.757 -1.757" fill="none" stroke="#000000" stroke-linecap="round" stroke-linejoin="round" stroke-width="1"></path><path d="M16.983 3.086A2.586 2.586 0 0 1 19.708 0.5a2.684 2.684 0 0 1 2.447 2.728v3.258a1 1 0 0 1 -1 1h-3.916" fill="none" stroke="#000000" stroke-linecap="round" stroke-linejoin="round" stroke-width="1"></path></svg>