<svg xmlns="http://www.w3.org/2000/svg" viewBox="0 0 24 24" id="Pie-Line-Graph--Streamline-Ultimate.svg" height="24" width="24"><desc>Pie Line Graph Streamline Icon: https://streamlinehq.com</desc><defs></defs><title>pie-line-graph</title><path d="M13.5 7a3.5 3.5 0 1 0 7 0 3.5 3.5 0 1 0 -7 0" fill="none" stroke="#000000" stroke-linecap="round" stroke-linejoin="round" stroke-width="1"></path><path d="m3.5 20.5 2.2 -3.083a0.5 0.5 0 0 1 0.706 -0.11L7.6 18.2a0.5 0.5 0 0 0 0.7 -0.1l2.7 -3.6" fill="none" stroke="#000000" stroke-linecap="round" stroke-linejoin="round" stroke-width="1"></path><path d="M17.751 3.581 17 7l3.474 -0.425" fill="none" stroke="#000000" stroke-linecap="round" stroke-linejoin="round" stroke-width="1"></path><path d="M15 13.5h5s0.5 0 0.5 0.5v6s0 0.5 -0.5 0.5h-5s-0.5 0 -0.5 -0.5v-6s0 -0.5 0.5 -0.5" fill="none" stroke="#000000" stroke-linecap="round" stroke-linejoin="round" stroke-width="1"></path><path d="m16.5 16.5 2 0" fill="none" stroke="#000000" stroke-linecap="round" stroke-linejoin="round" stroke-width="1"></path><path d="m16.5 18.5 1 0" fill="none" stroke="#000000" stroke-linecap="round" stroke-linejoin="round" stroke-width="1"></path><path d="M4 3.5h5s0.5 0 0.5 0.5v6s0 0.5 -0.5 0.5H4s-0.5 0 -0.5 -0.5V4s0 -0.5 0.5 -0.5" fill="none" stroke="#000000" stroke-linecap="round" stroke-linejoin="round" stroke-width="1"></path><path d="m5.5 5.5 2 0" fill="none" stroke="#000000" stroke-linecap="round" stroke-linejoin="round" stroke-width="1"></path><path d="m5.5 7.5 1 0" fill="none" stroke="#000000" stroke-linecap="round" stroke-linejoin="round" stroke-width="1"></path><path d="M1.5 0.5h21s1 0 1 1v21s0 1 -1 1h-21s-1 0 -1 -1v-21s0 -1 1 -1" fill="none" stroke="#000000" stroke-linecap="round" stroke-linejoin="round" stroke-width="1"></path></svg>