<svg xmlns="http://www.w3.org/2000/svg" viewBox="0 0 48 48" id="Layout-Dashboard--Streamline-Ultimate.svg" height="48" width="48"><desc>Layout Dashboard Streamline Icon: https://streamlinehq.com</desc><defs></defs><title>layout-dashboard</title><path d="M3 33h16s2 0 2 2v10s0 2 -2 2h-16s-2 0 -2 -2v-10s0 -2 2 -2" fill="none" stroke="#000000" stroke-linecap="round" stroke-linejoin="round" stroke-width="1"></path><path d="m45 47 -16 0s-2 0 -2 -2l0 -22s0 -2 2 -2l16 0s2 0 2 2l0 22s0 2 -2 2" fill="none" stroke="#000000" stroke-linecap="round" stroke-linejoin="round" stroke-width="1"></path><path d="m45 15 -16 0s-2 0 -2 -2l0 -10s0 -2 2 -2l16 0s2 0 2 2l0 10s0 2 -2 2" fill="none" stroke="#000000" stroke-linecap="round" stroke-linejoin="round" stroke-width="1"></path><path d="M3 1h16s2 0 2 2v22s0 2 -2 2h-16s-2 0 -2 -2v-22s0 -2 2 -2" fill="none" stroke="#000000" stroke-linecap="round" stroke-linejoin="round" stroke-width="1"></path></svg>