<svg viewBox="0 0 24 24" xmlns="http://www.w3.org/2000/svg" id="Github-Logo-1--Streamline-Ultimate.svg" height="24" width="24"><desc>Github Logo 1 Streamline Icon: https://streamlinehq.com</desc><path d="M12 0.5a11.5 11.5 0 0 0 -3.635 22.414c0.574 0.1 0.756 -0.237 0.756 -0.541 0 -0.275 0.006 -1.037 0 -2 -3.2 0.694 -3.861 -1.515 -3.861 -1.515a3.043 3.043 0 0 0 -1.276 -1.682c-1.044 -0.714 0.078 -0.7 0.078 -0.7a2.414 2.414 0 0 1 1.762 1.184 2.448 2.448 0 0 0 3.346 0.956 2.45 2.45 0 0 1 0.73 -1.532c-2.553 -0.292 -5.238 -1.278 -5.238 -5.686a4.447 4.447 0 0 1 1.185 -3.086 4.126 4.126 0 0 1 0.112 -3.043s0.967 -0.309 3.162 1.18a10.883 10.883 0 0 1 5.76 0c2.2 -1.488 3.159 -1.18 3.159 -1.18a4.131 4.131 0 0 1 0.114 3.043 4.442 4.442 0 0 1 1.183 3.088c0 4.42 -2.689 5.391 -5.251 5.674a2.727 2.727 0 0 1 0.787 2.12v3.184c0 0.307 0.186 0.647 0.77 0.536A11.5 11.5 0 0 0 12 0.5Z" fill="none" stroke="#000000" stroke-linecap="round" stroke-linejoin="round" stroke-width="1"></path></svg>