<svg xmlns="http://www.w3.org/2000/svg" viewBox="0 0 24 24" id="Customer-Relationship-Management-Forecasting--Streamline-Ultimate.svg" height="24" width="24"><desc>Customer Relationship Management Forecasting Streamline Icon: https://streamlinehq.com</desc><defs></defs><path d="m0.5 1.017 0 21.966 23 0" fill="none" stroke="#000000" stroke-linecap="round" stroke-linejoin="round" stroke-width="1"></path><path d="M20.881 11.739a10.68 10.68 0 0 1 -8.752 4.783 10.684 10.684 0 0 1 -8.752 -4.783 0.74 0.74 0 0 1 0 -0.77 10.681 10.681 0 0 1 8.752 -4.784 10.677 10.677 0 0 1 8.752 4.784 0.736 0.736 0 0 1 0 0.77Z" fill="none" stroke="#000000" stroke-linecap="round" stroke-linejoin="round" stroke-width="1"></path><path d="M8.954 11.354a3.175 3.175 0 1 0 6.35 0 3.175 3.175 0 1 0 -6.35 0" fill="none" stroke="#000000" stroke-linecap="round" stroke-linejoin="round" stroke-width="1"></path><path d="m0.758 22.725 5.254 -5.254" fill="none" stroke="#000000" stroke-linecap="round" stroke-linejoin="round" stroke-width="1"></path><path d="m17.728 1.017 4.738 0 0 4.738" fill="none" stroke="#000000" stroke-linecap="round" stroke-linejoin="round" stroke-width="1"></path><path d="m18.586 4.897 3.88 -3.88" fill="none" stroke="#000000" stroke-linecap="round" stroke-linejoin="round" stroke-width="1"></path></svg>